<mxfile host="app.diagrams.net" agent="Mozilla/5.0 (Windows NT 10.0; Win64; x64) AppleWebKit/537.36 (KHTML, like Gecko) Chrome/135.0.0.0 Safari/537.36" version="26.2.9">
  <diagram name="Halaman-1" id="oa67dm58s6h_PNTkt_5L">
    <mxGraphModel dx="525" dy="278" grid="1" gridSize="10" guides="1" tooltips="1" connect="1" arrows="1" fold="1" page="1" pageScale="1" pageWidth="827" pageHeight="1169" math="0" shadow="0">
      <root>
        <mxCell id="0" />
        <mxCell id="1" parent="0" />
        <mxCell id="6pNxAEckZFCcFxAxn4MV-1" value="START" style="ellipse;whiteSpace=wrap;html=1;" vertex="1" parent="1">
          <mxGeometry x="375" y="20" width="105" height="60" as="geometry" />
        </mxCell>
        <mxCell id="6pNxAEckZFCcFxAxn4MV-2" value="Input golongan jam lembur" style="shape=parallelogram;perimeter=parallelogramPerimeter;whiteSpace=wrap;html=1;fixedSize=1;" vertex="1" parent="1">
          <mxGeometry x="335" y="150" width="190" height="40" as="geometry" />
        </mxCell>
        <mxCell id="6pNxAEckZFCcFxAxn4MV-18" value="" style="endArrow=classic;html=1;rounded=0;exitX=0.5;exitY=1;exitDx=0;exitDy=0;" edge="1" parent="1" source="6pNxAEckZFCcFxAxn4MV-1">
          <mxGeometry width="50" height="50" relative="1" as="geometry">
            <mxPoint x="389" y="170" as="sourcePoint" />
            <mxPoint x="428" y="150" as="targetPoint" />
          </mxGeometry>
        </mxCell>
        <mxCell id="6pNxAEckZFCcFxAxn4MV-19" value="Gol A?" style="rhombus;whiteSpace=wrap;html=1;" vertex="1" parent="1">
          <mxGeometry x="391" y="240" width="80" height="80" as="geometry" />
        </mxCell>
        <mxCell id="6pNxAEckZFCcFxAxn4MV-20" value="" style="endArrow=classic;html=1;rounded=0;exitX=0.5;exitY=1;exitDx=0;exitDy=0;" edge="1" parent="1">
          <mxGeometry width="50" height="50" relative="1" as="geometry">
            <mxPoint x="429.67" y="190" as="sourcePoint" />
            <mxPoint x="430" y="240" as="targetPoint" />
          </mxGeometry>
        </mxCell>
        <mxCell id="6pNxAEckZFCcFxAxn4MV-21" value="" style="endArrow=classic;html=1;rounded=0;" edge="1" parent="1">
          <mxGeometry width="50" height="50" relative="1" as="geometry">
            <mxPoint x="471" y="279.67" as="sourcePoint" />
            <mxPoint x="520" y="280" as="targetPoint" />
          </mxGeometry>
        </mxCell>
        <mxCell id="6pNxAEckZFCcFxAxn4MV-22" value="Gaji pokok = 5.000.000" style="rounded=0;whiteSpace=wrap;html=1;" vertex="1" parent="1">
          <mxGeometry x="520" y="250" width="120" height="60" as="geometry" />
        </mxCell>
        <mxCell id="6pNxAEckZFCcFxAxn4MV-24" value="" style="shape=partialRectangle;whiteSpace=wrap;html=1;bottom=0;right=0;fillColor=none;rotation=-180;direction=north;" vertex="1" parent="1">
          <mxGeometry x="640" y="280" width="60" height="120" as="geometry" />
        </mxCell>
        <mxCell id="6pNxAEckZFCcFxAxn4MV-28" value="Gol B?" style="rhombus;whiteSpace=wrap;html=1;" vertex="1" parent="1">
          <mxGeometry x="390" y="360" width="80" height="80" as="geometry" />
        </mxCell>
        <mxCell id="6pNxAEckZFCcFxAxn4MV-29" value="" style="endArrow=classic;html=1;rounded=0;exitX=0.5;exitY=1;exitDx=0;exitDy=0;" edge="1" parent="1">
          <mxGeometry width="50" height="50" relative="1" as="geometry">
            <mxPoint x="430.67" y="320" as="sourcePoint" />
            <mxPoint x="430" y="360" as="targetPoint" />
          </mxGeometry>
        </mxCell>
        <mxCell id="6pNxAEckZFCcFxAxn4MV-30" value="" style="endArrow=classic;html=1;rounded=0;" edge="1" parent="1">
          <mxGeometry width="50" height="50" relative="1" as="geometry">
            <mxPoint x="471" y="400" as="sourcePoint" />
            <mxPoint x="520" y="400" as="targetPoint" />
          </mxGeometry>
        </mxCell>
        <mxCell id="6pNxAEckZFCcFxAxn4MV-31" value="Gaji pokok = 6.500.000" style="rounded=0;whiteSpace=wrap;html=1;" vertex="1" parent="1">
          <mxGeometry x="520" y="380" width="120" height="60" as="geometry" />
        </mxCell>
        <mxCell id="6pNxAEckZFCcFxAxn4MV-34" value="" style="endArrow=none;html=1;rounded=0;" edge="1" parent="1">
          <mxGeometry width="50" height="50" relative="1" as="geometry">
            <mxPoint x="700" y="420" as="sourcePoint" />
            <mxPoint x="700" y="400" as="targetPoint" />
          </mxGeometry>
        </mxCell>
        <mxCell id="6pNxAEckZFCcFxAxn4MV-35" value="" style="endArrow=none;html=1;rounded=0;exitX=0.994;exitY=0.644;exitDx=0;exitDy=0;exitPerimeter=0;" edge="1" parent="1" source="6pNxAEckZFCcFxAxn4MV-31">
          <mxGeometry width="50" height="50" relative="1" as="geometry">
            <mxPoint x="675" y="527" as="sourcePoint" />
            <mxPoint x="700" y="420" as="targetPoint" />
          </mxGeometry>
        </mxCell>
        <mxCell id="6pNxAEckZFCcFxAxn4MV-36" value="" style="endArrow=classic;html=1;rounded=0;exitX=0.5;exitY=1;exitDx=0;exitDy=0;" edge="1" parent="1">
          <mxGeometry width="50" height="50" relative="1" as="geometry">
            <mxPoint x="429.67" y="440" as="sourcePoint" />
            <mxPoint x="430" y="490" as="targetPoint" />
          </mxGeometry>
        </mxCell>
        <mxCell id="6pNxAEckZFCcFxAxn4MV-38" value="Gol C" style="rounded=0;whiteSpace=wrap;html=1;" vertex="1" parent="1">
          <mxGeometry x="377.5" y="490" width="92.5" height="60" as="geometry" />
        </mxCell>
        <mxCell id="6pNxAEckZFCcFxAxn4MV-39" value="" style="endArrow=classic;html=1;rounded=0;" edge="1" parent="1">
          <mxGeometry width="50" height="50" relative="1" as="geometry">
            <mxPoint x="470" y="519.67" as="sourcePoint" />
            <mxPoint x="530" y="520" as="targetPoint" />
          </mxGeometry>
        </mxCell>
        <mxCell id="6pNxAEckZFCcFxAxn4MV-40" value="Gaji pokok= 9.500.000" style="rounded=0;whiteSpace=wrap;html=1;" vertex="1" parent="1">
          <mxGeometry x="527.5" y="490" width="105" height="60" as="geometry" />
        </mxCell>
        <mxCell id="6pNxAEckZFCcFxAxn4MV-41" value="" style="endArrow=none;html=1;rounded=0;" edge="1" parent="1">
          <mxGeometry width="50" height="50" relative="1" as="geometry">
            <mxPoint x="700" y="520" as="sourcePoint" />
            <mxPoint x="700" y="420" as="targetPoint" />
          </mxGeometry>
        </mxCell>
        <mxCell id="6pNxAEckZFCcFxAxn4MV-43" value="" style="endArrow=none;html=1;rounded=0;exitX=1;exitY=0.5;exitDx=0;exitDy=0;" edge="1" parent="1" source="6pNxAEckZFCcFxAxn4MV-40">
          <mxGeometry width="50" height="50" relative="1" as="geometry">
            <mxPoint x="680" y="690" as="sourcePoint" />
            <mxPoint x="700" y="520" as="targetPoint" />
          </mxGeometry>
        </mxCell>
        <mxCell id="6pNxAEckZFCcFxAxn4MV-46" value="" style="endArrow=none;html=1;rounded=0;" edge="1" parent="1">
          <mxGeometry width="50" height="50" relative="1" as="geometry">
            <mxPoint x="700" y="600" as="sourcePoint" />
            <mxPoint x="700" y="520" as="targetPoint" />
          </mxGeometry>
        </mxCell>
        <mxCell id="6pNxAEckZFCcFxAxn4MV-47" value="" style="endArrow=classic;html=1;rounded=0;" edge="1" parent="1">
          <mxGeometry width="50" height="50" relative="1" as="geometry">
            <mxPoint x="700" y="600" as="sourcePoint" />
            <mxPoint x="632.5" y="600" as="targetPoint" />
          </mxGeometry>
        </mxCell>
        <mxCell id="6pNxAEckZFCcFxAxn4MV-48" value="Lembur 1 jam?" style="rhombus;whiteSpace=wrap;html=1;" vertex="1" parent="1">
          <mxGeometry x="552.5" y="560" width="80" height="80" as="geometry" />
        </mxCell>
        <mxCell id="6pNxAEckZFCcFxAxn4MV-51" value="" style="endArrow=classic;html=1;rounded=0;entryX=1;entryY=0.5;entryDx=0;entryDy=0;" edge="1" parent="1" source="6pNxAEckZFCcFxAxn4MV-48" target="6pNxAEckZFCcFxAxn4MV-52">
          <mxGeometry width="50" height="50" relative="1" as="geometry">
            <mxPoint x="460" y="780" as="sourcePoint" />
            <mxPoint x="500" y="740" as="targetPoint" />
          </mxGeometry>
        </mxCell>
        <mxCell id="6pNxAEckZFCcFxAxn4MV-52" value="Gaji lembur = gaji pokok * 0,30" style="rounded=0;whiteSpace=wrap;html=1;" vertex="1" parent="1">
          <mxGeometry x="375" y="570" width="120" height="60" as="geometry" />
        </mxCell>
        <mxCell id="6pNxAEckZFCcFxAxn4MV-53" value="" style="shape=partialRectangle;whiteSpace=wrap;html=1;bottom=0;right=0;fillColor=none;" vertex="1" parent="1">
          <mxGeometry x="255" y="600" width="120" height="60" as="geometry" />
        </mxCell>
        <mxCell id="6pNxAEckZFCcFxAxn4MV-54" value="Gaji lembur = gaji pokok * 0,32" style="rounded=0;whiteSpace=wrap;html=1;" vertex="1" parent="1">
          <mxGeometry x="371" y="660" width="120" height="60" as="geometry" />
        </mxCell>
        <mxCell id="6pNxAEckZFCcFxAxn4MV-56" value="" style="endArrow=none;html=1;rounded=0;" edge="1" parent="1">
          <mxGeometry width="50" height="50" relative="1" as="geometry">
            <mxPoint x="255" y="690" as="sourcePoint" />
            <mxPoint x="255" y="650" as="targetPoint" />
          </mxGeometry>
        </mxCell>
        <mxCell id="6pNxAEckZFCcFxAxn4MV-57" value="" style="endArrow=none;html=1;rounded=0;" edge="1" parent="1">
          <mxGeometry width="50" height="50" relative="1" as="geometry">
            <mxPoint x="255" y="690" as="sourcePoint" />
            <mxPoint x="370" y="690" as="targetPoint" />
          </mxGeometry>
        </mxCell>
        <mxCell id="6pNxAEckZFCcFxAxn4MV-60" value="" style="endArrow=classic;html=1;rounded=0;entryX=0.992;entryY=0.587;entryDx=0;entryDy=0;entryPerimeter=0;" edge="1" parent="1" target="6pNxAEckZFCcFxAxn4MV-54">
          <mxGeometry width="50" height="50" relative="1" as="geometry">
            <mxPoint x="553" y="695" as="sourcePoint" />
            <mxPoint x="490" y="700" as="targetPoint" />
          </mxGeometry>
        </mxCell>
        <mxCell id="6pNxAEckZFCcFxAxn4MV-62" value="Gaji lembur = gaji pokok * 0,34" style="rounded=0;whiteSpace=wrap;html=1;" vertex="1" parent="1">
          <mxGeometry x="367.5" y="760" width="120" height="60" as="geometry" />
        </mxCell>
        <mxCell id="6pNxAEckZFCcFxAxn4MV-63" value="Lembur 3 jam" style="rhombus;whiteSpace=wrap;html=1;" vertex="1" parent="1">
          <mxGeometry x="550.5" y="764" width="80" height="70" as="geometry" />
        </mxCell>
        <mxCell id="6pNxAEckZFCcFxAxn4MV-64" value="" style="endArrow=none;html=1;rounded=0;" edge="1" parent="1">
          <mxGeometry width="50" height="50" relative="1" as="geometry">
            <mxPoint x="255" y="800" as="sourcePoint" />
            <mxPoint x="255" y="690" as="targetPoint" />
          </mxGeometry>
        </mxCell>
        <mxCell id="6pNxAEckZFCcFxAxn4MV-65" value="" style="endArrow=none;html=1;rounded=0;entryX=0;entryY=0.667;entryDx=0;entryDy=0;entryPerimeter=0;" edge="1" parent="1" target="6pNxAEckZFCcFxAxn4MV-62">
          <mxGeometry width="50" height="50" relative="1" as="geometry">
            <mxPoint x="255" y="800" as="sourcePoint" />
            <mxPoint x="360" y="1010" as="targetPoint" />
          </mxGeometry>
        </mxCell>
        <mxCell id="6pNxAEckZFCcFxAxn4MV-68" value="" style="endArrow=classic;html=1;rounded=0;exitX=0.5;exitY=1;exitDx=0;exitDy=0;" edge="1" parent="1" source="6pNxAEckZFCcFxAxn4MV-48" target="6pNxAEckZFCcFxAxn4MV-59">
          <mxGeometry width="50" height="50" relative="1" as="geometry">
            <mxPoint x="593" y="640" as="sourcePoint" />
            <mxPoint x="600" y="830" as="targetPoint" />
          </mxGeometry>
        </mxCell>
        <mxCell id="6pNxAEckZFCcFxAxn4MV-59" value="Lembur 2 jam?" style="rhombus;whiteSpace=wrap;html=1;" vertex="1" parent="1">
          <mxGeometry x="552.5" y="660" width="80" height="70" as="geometry" />
        </mxCell>
        <mxCell id="6pNxAEckZFCcFxAxn4MV-70" value="" style="endArrow=classic;html=1;rounded=0;entryX=0.992;entryY=0.587;entryDx=0;entryDy=0;entryPerimeter=0;" edge="1" parent="1">
          <mxGeometry width="50" height="50" relative="1" as="geometry">
            <mxPoint x="550.5" y="800" as="sourcePoint" />
            <mxPoint x="487.5" y="800" as="targetPoint" />
          </mxGeometry>
        </mxCell>
        <mxCell id="6pNxAEckZFCcFxAxn4MV-71" value="" style="endArrow=classic;html=1;rounded=0;exitX=0.5;exitY=1;exitDx=0;exitDy=0;entryX=0.5;entryY=0;entryDx=0;entryDy=0;" edge="1" parent="1" source="6pNxAEckZFCcFxAxn4MV-59" target="6pNxAEckZFCcFxAxn4MV-63">
          <mxGeometry width="50" height="50" relative="1" as="geometry">
            <mxPoint x="565.5" y="764" as="sourcePoint" />
            <mxPoint x="590" y="760" as="targetPoint" />
          </mxGeometry>
        </mxCell>
        <mxCell id="6pNxAEckZFCcFxAxn4MV-72" value="" style="endArrow=none;html=1;rounded=0;" edge="1" parent="1">
          <mxGeometry width="50" height="50" relative="1" as="geometry">
            <mxPoint x="255" y="1080" as="sourcePoint" />
            <mxPoint x="255" y="800" as="targetPoint" />
          </mxGeometry>
        </mxCell>
        <mxCell id="6pNxAEckZFCcFxAxn4MV-77" value="" style="endArrow=classic;html=1;rounded=0;" edge="1" parent="1">
          <mxGeometry width="50" height="50" relative="1" as="geometry">
            <mxPoint x="590" y="835" as="sourcePoint" />
            <mxPoint x="590" y="875" as="targetPoint" />
          </mxGeometry>
        </mxCell>
        <mxCell id="6pNxAEckZFCcFxAxn4MV-78" value="lembur 4&amp;nbsp;&lt;div&gt;jam?&lt;/div&gt;" style="rhombus;whiteSpace=wrap;html=1;" vertex="1" parent="1">
          <mxGeometry x="550" y="875" width="80" height="60" as="geometry" />
        </mxCell>
        <mxCell id="6pNxAEckZFCcFxAxn4MV-80" value="" style="endArrow=none;html=1;rounded=0;" edge="1" parent="1" target="6pNxAEckZFCcFxAxn4MV-81">
          <mxGeometry width="50" height="50" relative="1" as="geometry">
            <mxPoint x="255" y="900" as="sourcePoint" />
            <mxPoint x="360" y="900" as="targetPoint" />
          </mxGeometry>
        </mxCell>
        <mxCell id="6pNxAEckZFCcFxAxn4MV-81" value="Gaji lembur= gaji pokok * 0,36" style="rounded=0;whiteSpace=wrap;html=1;" vertex="1" parent="1">
          <mxGeometry x="370" y="870" width="120" height="60" as="geometry" />
        </mxCell>
        <mxCell id="6pNxAEckZFCcFxAxn4MV-82" value="" style="endArrow=classic;html=1;rounded=0;entryX=0.992;entryY=0.587;entryDx=0;entryDy=0;entryPerimeter=0;" edge="1" parent="1">
          <mxGeometry width="50" height="50" relative="1" as="geometry">
            <mxPoint x="552.5" y="904.67" as="sourcePoint" />
            <mxPoint x="489.5" y="904.67" as="targetPoint" />
          </mxGeometry>
        </mxCell>
        <mxCell id="6pNxAEckZFCcFxAxn4MV-83" value="" style="endArrow=classic;html=1;rounded=0;" edge="1" parent="1">
          <mxGeometry width="50" height="50" relative="1" as="geometry">
            <mxPoint x="589.67" y="935" as="sourcePoint" />
            <mxPoint x="589.67" y="975" as="targetPoint" />
          </mxGeometry>
        </mxCell>
        <mxCell id="6pNxAEckZFCcFxAxn4MV-84" value="lembur &amp;gt;= 5jam" style="rounded=0;whiteSpace=wrap;html=1;" vertex="1" parent="1">
          <mxGeometry x="537" y="975" width="110" height="55" as="geometry" />
        </mxCell>
        <mxCell id="6pNxAEckZFCcFxAxn4MV-85" value="" style="endArrow=classic;html=1;rounded=0;entryX=0.992;entryY=0.587;entryDx=0;entryDy=0;entryPerimeter=0;" edge="1" parent="1" target="6pNxAEckZFCcFxAxn4MV-86">
          <mxGeometry width="50" height="50" relative="1" as="geometry">
            <mxPoint x="534" y="1002.17" as="sourcePoint" />
            <mxPoint x="471" y="1002.17" as="targetPoint" />
          </mxGeometry>
        </mxCell>
        <mxCell id="6pNxAEckZFCcFxAxn4MV-86" value="Gaji lembur= gaji pokok * 0,38" style="rounded=0;whiteSpace=wrap;html=1;" vertex="1" parent="1">
          <mxGeometry x="370" y="973" width="101" height="50" as="geometry" />
        </mxCell>
        <mxCell id="6pNxAEckZFCcFxAxn4MV-87" value="" style="endArrow=none;html=1;rounded=0;" edge="1" parent="1">
          <mxGeometry width="50" height="50" relative="1" as="geometry">
            <mxPoint x="255" y="1001" as="sourcePoint" />
            <mxPoint x="370" y="1000" as="targetPoint" />
          </mxGeometry>
        </mxCell>
        <mxCell id="6pNxAEckZFCcFxAxn4MV-88" value="" style="endArrow=classic;html=1;rounded=0;" edge="1" parent="1">
          <mxGeometry width="50" height="50" relative="1" as="geometry">
            <mxPoint x="255" y="1080" as="sourcePoint" />
            <mxPoint x="360" y="1080" as="targetPoint" />
          </mxGeometry>
        </mxCell>
        <mxCell id="6pNxAEckZFCcFxAxn4MV-89" value="total_penghasilan=&lt;div&gt;gaji_pokok+gaji_lembur&lt;/div&gt;" style="rounded=0;whiteSpace=wrap;html=1;" vertex="1" parent="1">
          <mxGeometry x="360.5" y="1040" width="129.5" height="60" as="geometry" />
        </mxCell>
        <mxCell id="6pNxAEckZFCcFxAxn4MV-90" value="" style="endArrow=classic;html=1;rounded=0;exitX=0.421;exitY=1.007;exitDx=0;exitDy=0;exitPerimeter=0;" edge="1" parent="1">
          <mxGeometry width="50" height="50" relative="1" as="geometry">
            <mxPoint x="416.02" y="1100.42" as="sourcePoint" />
            <mxPoint x="416" y="1150" as="targetPoint" />
          </mxGeometry>
        </mxCell>
        <mxCell id="6pNxAEckZFCcFxAxn4MV-91" value="Total penghasilan" style="rounded=0;whiteSpace=wrap;html=1;" vertex="1" parent="1">
          <mxGeometry x="354" y="1150" width="120" height="60" as="geometry" />
        </mxCell>
        <mxCell id="6pNxAEckZFCcFxAxn4MV-92" value="" style="endArrow=classic;html=1;rounded=0;exitX=0.5;exitY=1;exitDx=0;exitDy=0;" edge="1" parent="1" source="6pNxAEckZFCcFxAxn4MV-91" target="6pNxAEckZFCcFxAxn4MV-93">
          <mxGeometry width="50" height="50" relative="1" as="geometry">
            <mxPoint x="380" y="1360" as="sourcePoint" />
            <mxPoint x="414" y="1300" as="targetPoint" />
          </mxGeometry>
        </mxCell>
        <mxCell id="6pNxAEckZFCcFxAxn4MV-93" value="END" style="ellipse;whiteSpace=wrap;html=1;" vertex="1" parent="1">
          <mxGeometry x="366" y="1280" width="96" height="50" as="geometry" />
        </mxCell>
      </root>
    </mxGraphModel>
  </diagram>
</mxfile>
